<svg width="20" height="20" viewBox="0 0 20 20" fill="none" xmlns="http://www.w3.org/2000/svg">
<path d="M8.63889 2.5H3.80556C3.59191 2.5 3.38701 2.58487 3.23594 2.73594C3.08487 2.88701 3 3.09191 3 3.30556V8.13889C3 8.35254 3.08487 8.55743 3.23594 8.7085C3.38701 8.85957 3.59191 8.94444 3.80556 8.94444H8.63889C8.85254 8.94444 9.05743 8.85957 9.2085 8.7085C9.35957 8.55743 9.44444 8.35254 9.44444 8.13889V3.30556C9.44444 3.09191 9.35957 2.88701 9.2085 2.73594C9.05743 2.58487 8.85254 2.5 8.63889 2.5ZM16.6944 10.5556H11.8611C11.6475 10.5556 11.4426 10.6404 11.2915 10.7915C11.1404 10.9426 11.0556 11.1475 11.0556 11.3611V16.1944C11.0556 16.4081 11.1404 16.613 11.2915 16.7641C11.4426 16.9151 11.6475 17 11.8611 17H16.6944C16.9081 17 17.113 16.9151 17.2641 16.7641C17.4151 16.613 17.5 16.4081 17.5 16.1944V11.3611C17.5 11.1475 17.4151 10.9426 17.2641 10.7915C17.113 10.6404 16.9081 10.5556 16.6944 10.5556ZM14.2778 2.5C12.5007 2.5 11.0556 3.94517 11.0556 5.72222C11.0556 7.49928 12.5007 8.94444 14.2778 8.94444C16.0548 8.94444 17.5 7.49928 17.5 5.72222C17.5 3.94517 16.0548 2.5 14.2778 2.5ZM6.22222 10.5556C4.44517 10.5556 3 12.0007 3 13.7778C3 15.5548 4.44517 17 6.22222 17C7.99928 17 9.44444 15.5548 9.44444 13.7778C9.44444 12.0007 7.99928 10.5556 6.22222 10.5556Z" fill="white" fill-opacity="0.41"/>
</svg>
