<svg width="22" height="22" viewBox="0 0 22 22" fill="none" xmlns="http://www.w3.org/2000/svg">
<path fill-rule="evenodd" clip-rule="evenodd" d="M3.17531 18.8238C4.51915 20.1667 6.67881 20.1667 11 20.1667C15.3211 20.1667 17.4817 20.1667 18.8237 18.8238C20.1666 17.4827 20.1666 15.3212 20.1666 11C20.1666 6.67884 20.1666 4.51826 18.8237 3.17534C17.4826 1.83334 15.3211 1.83334 11 1.83334C6.67881 1.83334 4.51823 1.83334 3.17531 3.17534C1.83331 4.51918 1.83331 6.67884 1.83331 11C1.83331 15.3212 1.83331 17.4818 3.17531 18.8238ZM13.5208 14.6667C13.5208 14.849 13.4484 15.0239 13.3194 15.1528C13.1905 15.2817 13.0156 15.3542 12.8333 15.3542H9.16665C8.98431 15.3542 8.80944 15.2817 8.68051 15.1528C8.55158 15.0239 8.47915 14.849 8.47915 14.6667C8.47915 14.4843 8.55158 14.3095 8.68051 14.1805C8.80944 14.0516 8.98431 13.9792 9.16665 13.9792H12.8333C13.0156 13.9792 13.1905 14.0516 13.3194 14.1805C13.4484 14.3095 13.5208 14.4843 13.5208 14.6667ZM14.6666 11.6875C14.849 11.6875 15.0239 11.6151 15.1528 11.4861C15.2817 11.3572 15.3541 11.1823 15.3541 11C15.3541 10.8177 15.2817 10.6428 15.1528 10.5139C15.0239 10.3849 14.849 10.3125 14.6666 10.3125H7.33331C7.15098 10.3125 6.97611 10.3849 6.84718 10.5139C6.71825 10.6428 6.64581 10.8177 6.64581 11C6.64581 11.1823 6.71825 11.3572 6.84718 11.4861C6.97611 11.6151 7.15098 11.6875 7.33331 11.6875H14.6666ZM17.1875 7.33334C17.1875 7.51568 17.115 7.69055 16.9861 7.81948C16.8572 7.94841 16.6823 8.02084 16.5 8.02084H5.49998C5.31764 8.02084 5.14277 7.94841 5.01384 7.81948C4.88491 7.69055 4.81248 7.51568 4.81248 7.33334C4.81248 7.15101 4.88491 6.97614 5.01384 6.84721C5.14277 6.71828 5.31764 6.64584 5.49998 6.64584H16.5C16.6823 6.64584 16.8572 6.71828 16.9861 6.84721C17.115 6.97614 17.1875 7.15101 17.1875 7.33334Z" fill="white" fill-opacity="0.41"/>
</svg>
