<svg width="25" height="25" viewBox="0 0 25 25" fill="none" xmlns="http://www.w3.org/2000/svg">
<rect x="0.5" y="0.5" width="24" height="24" rx="12" stroke="#6F6F6F"/>
<path d="M6.64645 17.6464C6.45118 17.8417 6.45118 18.1583 6.64645 18.3536C6.84171 18.5488 7.15829 18.5488 7.35355 18.3536L6.64645 17.6464ZM18.8137 6.68629C18.8137 6.41015 18.5899 6.18629 18.3137 6.18629L13.8137 6.18629C13.5376 6.18629 13.3137 6.41015 13.3137 6.68629C13.3137 6.96243 13.5376 7.18629 13.8137 7.18629H17.8137V11.1863C17.8137 11.4624 18.0376 11.6863 18.3137 11.6863C18.5899 11.6863 18.8137 11.4624 18.8137 11.1863V6.68629ZM7.35355 18.3536L18.6673 7.03985L17.9602 6.33274L6.64645 17.6464L7.35355 18.3536Z" fill="#6F6F6F"/>
</svg>
