<svg width="25" height="25" viewBox="0 0 25 25" fill="none" xmlns="http://www.w3.org/2000/svg">
<path d="M23.9183 23.9183C24.5157 23.3208 24.5157 22.3522 23.9184 21.7547L18.7518 16.5874C18.0559 15.8913 17.9919 14.8003 18.4216 13.9148C19.0567 12.6062 19.3908 11.164 19.3894 9.69471C19.3894 4.34916 15.0403 0 9.69471 0C4.34916 0 0 4.34916 0 9.69471C0 15.0403 4.34916 19.3894 9.69471 19.3894C11.164 19.3908 12.6062 19.0567 13.9148 18.4216C14.8003 17.9919 15.8913 18.0559 16.5874 18.7518L21.7547 23.9184C22.3522 24.5157 23.3208 24.5157 23.9183 23.9183ZM9.69471 16.3275C8.3827 16.3276 7.10011 15.9387 6.00916 15.2098C4.91821 14.481 4.06789 13.445 3.56575 12.2329C3.06361 11.0208 2.93219 9.68696 3.18813 8.40014C3.44406 7.11333 4.07584 5.93131 5.00358 5.00358C5.93131 4.07584 7.11333 3.44406 8.40014 3.18813C9.68696 2.93219 11.0208 3.06361 12.2329 3.56575C13.445 4.06789 14.481 4.91821 15.2098 6.00916C15.9387 7.10011 16.3276 8.3827 16.3275 9.69471C16.3255 11.4532 15.626 13.1391 14.3825 14.3825C13.1391 15.626 11.4532 16.3255 9.69471 16.3275Z" fill="white"/>
</svg>
